<?xml version="1.0" standalone="no"?>
<!DOCTYPE svg PUBLIC "-//W3C//DTD SVG 20010904//EN"
 "http://www.w3.org/TR/2001/REC-SVG-20010904/DTD/svg10.dtd">
<svg version="1.0" xmlns="http://www.w3.org/2000/svg"
 width="32.000000pt" height="32.000000pt" viewBox="0 0 32.000000 32.000000"
 preserveAspectRatio="xMidYMid meet">

<g transform="translate(0.000000,32.000000) scale(0.100000,-0.100000)"
fill="#000000" stroke="none">
<path d="M137 310 c-40 -12 -55 -27 -66 -67 -8 -27 -6 -45 6 -74 19 -48 37
-59 97 -59 35 0 48 5 60 22 8 12 13 25 9 31 -3 5 -11 -2 -17 -15 -9 -17 -20
-23 -46 -23 l-35 0 0 85 0 85 29 3 c35 4 58 -14 36 -28 -20 -12 0 -33 23 -24
22 8 22 27 0 47 -24 21 -62 28 -96 17z m-22 -100 c0 -76 -15 -89 -28 -24 -8
38 4 94 20 94 5 0 8 -31 8 -70z"/>
<path d="M144 78 c-17 -28 -5 -78 19 -78 19 0 34 13 41 36 11 37 -41 73 -60
42z m41 -9 c11 -16 -4 -59 -20 -59 -10 0 -15 11 -15 35 0 35 20 49 35 24z"/>
</g>
</svg>
